<svg width="207" height="79" viewBox="22 14 207 79" fill="none" xmlns="http://www.w3.org/2000/svg">
<path d="M134.98 78.29L126.83 56H120.13L107.33 91H113.58L123.43 63L130.47 83.02C132.11 81.61 133.63 80.02 134.98 78.29Z" fill="black"/>
<path d="M131.97 85.69C131.83 85.81 131.68 85.92 131.53 86.03L133.28 90.99H139.63L136.18 81.55C134.88 83.05 133.48 84.43 131.97 85.68V85.69Z" fill="black"/>
<path d="M25.02 91V56H31.02V86.3H46.62V91H25.02Z" fill="black"/>
<path d="M48.1799 91L60.9799 56H67.6799L80.4799 91H74.1299L64.2799 63L54.4299 91H48.1799ZM53.8799 82.75L55.4799 78H72.7299L74.3299 82.75H53.8799Z" fill="black"/>
<path d="M82.1299 91V86.4L98.6299 61.05H82.2299V56H105.58V60.6L88.9799 85.95H105.68V91H82.1299Z" fill="black"/>
<path d="M184.67 91.6C182.14 91.6 179.84 91.1 177.79 90.1C175.74 89.1 174.11 87.57 172.89 85.5C171.67 83.43 171.06 80.83 171.06 77.7V56H177.06V77.75C177.06 79.65 177.38 81.22 178.01 82.45C178.64 83.68 179.53 84.61 180.68 85.22C181.83 85.84 183.19 86.15 184.76 86.15C186.33 86.15 187.73 85.84 188.88 85.22C190.03 84.6 190.91 83.68 191.53 82.45C192.15 81.22 192.45 79.65 192.45 77.75V56H198.45V77.7C198.45 80.83 197.83 83.43 196.6 85.5C195.37 87.57 193.7 89.1 191.6 90.1C189.5 91.1 187.18 91.6 184.65 91.6H184.67Z" fill="black"/>
<path d="M214.97 91.6C212.44 91.6 210.19 91.15 208.22 90.25C206.25 89.35 204.72 88.07 203.62 86.4C202.52 84.73 201.95 82.75 201.92 80.45H208.27C208.27 81.62 208.55 82.66 209.1 83.57C209.65 84.48 210.42 85.21 211.4 85.74C212.38 86.27 213.58 86.54 214.98 86.54C216.18 86.54 217.22 86.35 218.1 85.96C218.98 85.58 219.67 85.03 220.15 84.31C220.63 83.59 220.88 82.75 220.88 81.78C220.88 80.68 220.62 79.77 220.1 79.06C219.58 78.35 218.88 77.73 217.98 77.23C217.08 76.73 216.05 76.29 214.88 75.9C213.71 75.52 212.48 75.11 211.18 74.68C208.41 73.75 206.33 72.56 204.93 71.1C203.53 69.64 202.83 67.71 202.83 65.27C202.83 63.24 203.31 61.49 204.28 60.02C205.25 58.55 206.61 57.41 208.36 56.6C210.11 55.78 212.14 55.38 214.44 55.38C216.74 55.38 218.82 55.8 220.56 56.63C222.3 57.46 223.69 58.62 224.71 60.1C225.73 61.58 226.25 63.36 226.28 65.43H219.88C219.85 64.56 219.61 63.76 219.18 63.01C218.75 62.26 218.12 61.64 217.3 61.16C216.48 60.68 215.49 60.44 214.33 60.44C213.33 60.41 212.44 60.56 211.65 60.91C210.87 61.26 210.25 61.76 209.8 62.41C209.35 63.06 209.13 63.87 209.13 64.83C209.13 65.79 209.34 66.54 209.75 67.16C210.17 67.78 210.77 68.29 211.58 68.71C212.38 69.13 213.31 69.52 214.38 69.89C215.45 70.26 216.61 70.66 217.88 71.09C219.61 71.66 221.19 72.35 222.6 73.17C224.02 73.99 225.14 75.05 225.98 76.34C226.81 77.64 227.23 79.32 227.23 81.39C227.23 83.19 226.76 84.86 225.83 86.41C224.9 87.96 223.53 89.21 221.73 90.16C219.93 91.11 217.68 91.58 214.98 91.58L214.97 91.6Z" fill="black"/>
<path d="M31.2099 48.32C29.9099 48.32 28.7499 48.02 27.7099 47.42C26.6699 46.82 25.8599 45.98 25.2799 44.91C24.6999 43.84 24.3999 42.61 24.3999 41.22C24.3999 39.83 24.6999 38.55 25.2899 37.48C25.8799 36.41 26.6999 35.57 27.7299 34.97C28.7699 34.37 29.9299 34.07 31.2299 34.07C32.5299 34.07 33.6899 34.37 34.7299 34.97C35.7699 35.57 36.5699 36.41 37.1599 37.47C37.7499 38.53 38.0399 39.77 38.0399 41.2C38.0399 42.63 37.7399 43.86 37.1499 44.93C36.5599 45.99 35.7399 46.82 34.7099 47.43C33.6699 48.03 32.5099 48.33 31.2099 48.33V48.32ZM31.2099 45.54C31.8599 45.54 32.4499 45.38 32.9799 45.05C33.5099 44.72 33.9399 44.24 34.2599 43.59C34.5799 42.94 34.7499 42.14 34.7499 41.19C34.7499 40.24 34.5899 39.44 34.2799 38.8C33.9599 38.16 33.5399 37.68 33.0099 37.36C32.4799 37.04 31.8899 36.87 31.2399 36.87C30.5899 36.87 30.0299 37.03 29.4899 37.36C28.9499 37.68 28.5199 38.17 28.1899 38.8C27.8699 39.44 27.6999 40.24 27.6999 41.19C27.6999 42.14 27.8599 42.94 28.1899 43.59C28.5099 44.24 28.9399 44.72 29.4699 45.05C29.9999 45.37 30.5799 45.54 31.2099 45.54Z" fill="black"/>
<path d="M39.5798 53.94V34.39H42.4698L42.8198 36.36C43.1098 35.96 43.4498 35.59 43.8598 35.24C44.2598 34.89 44.7598 34.61 45.3398 34.39C45.9198 34.17 46.5998 34.07 47.3498 34.07C48.6298 34.07 49.7598 34.38 50.7398 35.01C51.7198 35.64 52.4898 36.49 53.0498 37.56C53.6098 38.63 53.8898 39.85 53.8898 41.22C53.8898 42.59 53.6098 43.81 53.0398 44.88C52.4698 45.95 51.6998 46.79 50.7198 47.4C49.7398 48.01 48.6198 48.32 47.3598 48.32C46.3298 48.32 45.4398 48.13 44.6698 47.74C43.8998 47.35 43.2898 46.8 42.8198 46.08V53.94H39.5798ZM46.6798 45.51C47.4398 45.51 48.1098 45.33 48.6998 44.97C49.2898 44.61 49.7598 44.11 50.0898 43.46C50.4198 42.81 50.5898 42.07 50.5898 41.22C50.5898 40.37 50.4198 39.6 50.0898 38.95C49.7598 38.3 49.2898 37.8 48.6998 37.44C48.1098 37.08 47.4298 36.9 46.6798 36.9C45.9298 36.9 45.2298 37.08 44.6398 37.44C44.0598 37.8 43.5998 38.3 43.2598 38.95C42.9298 39.6 42.7598 40.35 42.7598 41.19C42.7598 42.03 42.9298 42.81 43.2598 43.44C43.5898 44.08 44.0498 44.58 44.6398 44.95C45.2198 45.32 45.8998 45.5 46.6798 45.5V45.51Z" fill="black"/>
<path d="M61.77 48.32C60.42 48.32 59.2299 48.03 58.2099 47.44C57.1799 46.86 56.38 46.03 55.81 44.97C55.23 43.91 54.95 42.68 54.95 41.3C54.95 39.92 55.2299 38.6 55.7999 37.52C56.3699 36.44 57.17 35.59 58.2 34.98C59.24 34.37 60.4399 34.06 61.7999 34.06C63.1599 34.06 64.2899 34.36 65.2799 34.95C66.2699 35.54 67.03 36.34 67.57 37.34C68.11 38.34 68.3799 39.46 68.3799 40.7V41.29C68.3799 41.51 68.36 41.73 68.33 41.96H57.2599V39.88H65.12C65.08 38.89 64.75 38.11 64.12 37.55C63.49 36.98 62.71 36.7 61.77 36.7C61.1 36.7 60.49 36.85 59.93 37.16C59.37 37.47 58.93 37.92 58.61 38.52C58.29 39.12 58.1199 39.88 58.1199 40.8V41.58C58.1199 42.43 58.28 43.16 58.59 43.77C58.9 44.38 59.3399 44.85 59.8899 45.16C60.4399 45.48 61.06 45.63 61.74 45.63C62.5 45.63 63.1199 45.47 63.6199 45.14C64.1099 44.82 64.4799 44.38 64.7099 43.84H68C67.75 44.69 67.33 45.45 66.76 46.12C66.19 46.79 65.4699 47.33 64.6299 47.71C63.7899 48.09 62.83 48.29 61.77 48.29V48.32Z" fill="black"/>
<path d="M69.76 48V34.39H72.62L72.86 36.66C73.27 35.87 73.87 35.24 74.64 34.77C75.41 34.3 76.33 34.07 77.39 34.07C78.45 34.07 79.42 34.3 80.2 34.76C80.97 35.22 81.57 35.89 82 36.77C82.43 37.65 82.63 38.75 82.63 40.06V48H79.39V40.36C79.39 39.23 79.14 38.35 78.63 37.74C78.13 37.13 77.38 36.82 76.39 36.82C75.74 36.82 75.16 36.97 74.65 37.28C74.14 37.59 73.73 38.03 73.44 38.62C73.14 39.2 72.99 39.91 72.99 40.74V48H69.75H69.76Z" fill="black"/>
<path d="M27.4399 29.36C38.9099 22.54 55.6799 18.65 74.1299 19.52C84.0199 19.98 92.9499 21.03 101.99 24.16C105.3 25.31 108.74 26.73 112.02 28.51C115.3 30.29 118.41 32.41 121.06 34.97C128.73 42.36 133.54 53.65 130.99 63.67C128.79 72.33 120.7 79.97 110.92 81.52L106.92 91.52C109.2 92.48 113.26 91.52 116.92 90.52C120.3 89.6 121.26 89.15 124.4 87.58C126.61 86.47 128.69 85.05 130.56 83.48C134.34 80.31 137.34 76.35 139.43 72C145.03 60.37 144 47.03 135.61 37C121.8 20.49 98.3699 15.47 77.0999 15.47C57.0499 15.47 39.0999 20.75 27.0199 29.07L23.9399 31.44L27.4599 29.37L27.4399 29.36Z" fill="black"/>
<path d="M167.52 91L160.21 76.34C160.8 76.15 161.36 75.92 161.87 75.66C163.7 74.69 165.05 73.41 165.92 71.81C166.79 70.21 167.22 68.48 167.22 66.61C167.22 64.61 166.78 62.82 165.9 61.23C165.02 59.65 163.67 58.38 161.85 57.43C160.03 56.48 157.74 56.01 154.97 56.01H145.3C145.5 61.14 144.55 66.4 142.42 71.46V91.01H148.42V77.11H154.06L160.67 91.01H167.52V91ZM148.42 61H154.57C156.84 61 158.49 61.53 159.52 62.58C160.55 63.63 161.07 65.02 161.07 66.75C161.07 68.48 160.54 69.94 159.49 71.03C158.44 72.12 156.8 72.65 154.57 72.65H148.42V61Z" fill="black"/>
</svg>
